<svg xmlns="http://www.w3.org/2000/svg" viewBox="0 0 64 64"><path d="M36.22 32.86a6.27 6.27 0 00-4.5-1.8c-3.4.1-6.2 3-6.1 6.4 0 1.8.9 3.5 2.2 4.6v4.4c-.1 2.2 1.6 4.1 3.8 4.2s4.1-1.6 4.2-3.8v-4.8c2.6-2.2 3-6.2.8-8.8-.1-.1-.3-.2-.4-.4zm-2 7.4c-.5.4-.8 1.1-.8 1.7v4.5c0 .8-.7 1.5-1.5 1.5s-1.5-.7-1.5-1.5v-4.4c0-.7-.3-1.3-.8-1.7-.9-.7-1.5-1.9-1.4-3.1.1-2 1.7-3.5 3.6-3.6h.1c2.1 0 3.8 1.7 3.8 3.7-.1 1.1-.6 2.2-1.5 2.9z" class="st0"/><path d="M48.04 25.4v-9.1c0-9-7.3-16.2-16.2-16.3-9 0-16.2 7.3-16.3 16.2v9.1a21.9 21.9 0 00-6 11.3c-.1.7.3 1.3 1 1.5.7.1 1.3-.3 1.5-1 2.3-10.9 13-18 23.9-15.7s18 13 15.7 23.9c-2.3 10.9-13 18-23.9 15.7-7.9-1.6-14.1-7.8-15.7-15.7-.2-.7-.8-1.1-1.5-.9-.7.1-1.1.8-1 1.4a22.7 22.7 0 0026.8 17.7 22.55 22.55 0 0017.7-26.7c-.9-4.3-3-8.2-6-11.4zm-8.5-5.5c-5-1.8-10.5-1.8-15.5 0v-3.6a7.7 7.7 0 0115.4 0v3.6h.1zm6 3.3c-1.1-.8-2.3-1.6-3.5-2.2v-4.7c.1-5.7-4.4-10.3-10.1-10.4-5.7 0-10.3 4.5-10.4 10.2v5c-1.2.6-2.4 1.3-3.5 2.2v-6.9c0-7.6 6.2-13.7 13.7-13.7 7.6 0 13.7 6.2 13.7 13.7l.1 6.8z" class="st0"/><path d="M48.72 39.98c-.5-.5-1.3-.5-1.8 0s-.5 1.3 0 1.8 1.3.5 1.8 0c.2-.2.4-.6.4-.9 0-.4-.2-.7-.4-.9zM48.67 36.83c-1.8-7.8-8.8-13.3-16.8-13.3-.7 0-1.2.6-1.2 1.2 0 .7.6 1.2 1.2 1.2 6.8 0 12.8 4.7 14.3 11.3.2.7.8 1.1 1.5.9.7.1 1.1-.6 1-1.3zM10.4 39.58c-.7 0-1.3.6-1.3 1.2 0 .7.6 1.3 1.2 1.3h.1c.7 0 1.3-.6 1.3-1.2-.1-.7-.6-1.3-1.3-1.3z" class="st0"/></svg>