<svg xmlns="http://www.w3.org/2000/svg" viewBox="0 0 66.1 54.2"><defs/><path fill="#d3b7d6" d="M33 54.2a124.3 124.3 0 01-16.5-11.39 66.35 66.35 0 01-11.34-11.6C1.74 26.53 0 22.1 0 18.01a17.9 17.9 0 011.37-6.9 17.9 17.9 0 013.9-5.84 17.9 17.9 0 015.83-3.9A17.9 17.9 0 0117.98 0h.13a17.97 17.97 0 018.52 2.16A17.97 17.97 0 0133.1 8.1a17.73 17.73 0 0114.84-8h.16a18.01 18.01 0 0112.7 5.3 18.01 18.01 0 015.3 12.69c0 4.13-1.74 8.6-5.17 13.28a65.35 65.35 0 01-11.38 11.56A121.95 121.95 0 0133 54.2zm-5.6-18.5a4.03 4.03 0 011.6.6 14.07 14.07 0 006.5 1.7l.6.02a8.78 8.78 0 005.2-1.72 7 7 0 002.5-5.1 6.2 6.2 0 00-.4-3.1 6.66 6.66 0 00-.6-1.2 4.06 4.06 0 00-.9-1l-.5-.4a5.83 5.83 0 00-.5-.4l-.6-.36c-.18-.1-.38-.2-.6-.34a6.6 6.6 0 00-1.2-.6c-.3-.1-1.18-.5-2.7-1.2a4.8 4.8 0 01-.5-.22c-.28-.13-.64-.3-1.1-.48a14.54 14.54 0 01-1.7-.8 7.9 7.9 0 01-.75-.45l-.55-.35a2.4 2.4 0 01-1-1 3.25 3.25 0 01-.3-1.6 2.63 2.63 0 01.9-1.9 3.23 3.23 0 012.25-.9H33.47a8.44 8.44 0 015.33 1.9 5.8 5.8 0 012.2 4.8h.6v-7.5h-.8c0 .89-.3 1.4-.8 1.4a12.33 12.33 0 01-2.4-.7 14.25 14.25 0 00-4.43-.7h-.42A7.16 7.16 0 0028 15.9a7.07 7.07 0 00-2.4 5 5.44 5.44 0 002.2 5.2 20.46 20.46 0 004.4 2.4l1.87.89 2.53 1.2c1.54.94 2.3 1.95 2.3 3.1a3.43 3.43 0 01-1 2.6 3.4 3.4 0 01-2.43 1h-.37a9.15 9.15 0 01-3.51-.7 9.15 9.15 0 01-3-2 8.7 8.7 0 01-2.8-6.6H25v9.6h.8c0-1.04.46-1.58 1.6-1.9z"/></svg>