<?xml version="1.0" standalone="no"?>
<!DOCTYPE svg PUBLIC "-//W3C//DTD SVG 20010904//EN"
 "http://www.w3.org/TR/2001/REC-SVG-20010904/DTD/svg10.dtd">
<svg version="1.0" xmlns="http://www.w3.org/2000/svg"
 width="1056.000000pt" height="1056.000000pt" viewBox="0 0 1056.000000 1056.000000"
 preserveAspectRatio="xMidYMid meet">
<metadata>
Created by potrace 1.11, written by Peter Selinger 2001-2013
</metadata>
<g transform="translate(0.000000,1056.000000) scale(0.100000,-0.100000)"
fill="#000000" stroke="none">
<path d="M2647 9604 c-2 -2 -30 -6 -63 -10 -32 -3 -75 -8 -94 -10 -19 -3 -48
-6 -65 -8 -16 -2 -57 -9 -90 -16 -33 -7 -67 -14 -75 -15 -8 -1 -22 -5 -30 -8
-8 -4 -26 -8 -40 -9 -14 -2 -31 -7 -37 -11 -7 -5 -13 -6 -13 -3 0 3 -16 -2
-35 -10 -19 -8 -37 -14 -40 -13 -14 2 -131 -37 -235 -78 -115 -45 -301 -133
-395 -188 -53 -30 -244 -157 -273 -180 -9 -7 -53 -42 -97 -77 -44 -34 -118
-100 -165 -145 -46 -46 -88 -83 -92 -83 -4 0 -8 -3 -8 -8 0 -4 -19 -28 -43
-52 -23 -25 -62 -70 -87 -100 -25 -30 -47 -57 -51 -60 -3 -3 -14 -19 -24 -37
-10 -18 -22 -30 -27 -27 -4 3 -8 1 -8 -4 0 -5 -34 -59 -75 -120 -41 -61 -75
-113 -75 -116 0 -4 -11 -23 -24 -44 -12 -20 -44 -80 -70 -132 -27 -52 -52
-102 -56 -111 -5 -9 -24 -54 -43 -100 -18 -46 -38 -93 -42 -104 -5 -11 -9 -22
-10 -25 0 -3 -16 -52 -34 -110 -18 -58 -35 -115 -37 -127 -2 -12 -9 -34 -14
-48 -5 -14 -8 -25 -5 -25 2 0 -1 -15 -6 -32 -9 -30 -18 -78 -24 -118 -1 -8 -5
-31 -9 -50 -4 -19 -9 -53 -11 -75 -3 -22 -8 -71 -12 -110 -15 -130 -7 -532 11
-616 3 -13 8 -40 11 -59 5 -36 7 -47 26 -140 15 -73 15 -73 22 -90 3 -8 13
-44 22 -80 28 -106 86 -274 98 -287 4 -3 7 -12 7 -20 0 -7 10 -35 21 -61 12
-26 28 -63 36 -82 9 -19 30 -65 49 -102 18 -36 30 -69 27 -72 -4 -3 -1 -6 5
-6 7 0 12 -9 12 -19 0 -11 5 -23 10 -26 6 -4 21 -28 34 -53 44 -91 254 -441
276 -462 3 -3 18 -25 35 -50 25 -39 178 -248 212 -290 52 -66 183 -226 216
-264 10 -11 33 -38 50 -59 74 -87 166 -191 257 -290 90 -98 326 -341 379 -391
24 -23 85 -81 136 -131 85 -82 121 -115 280 -255 68 -60 154 -135 185 -161 14
-11 36 -30 50 -42 14 -12 43 -35 65 -52 22 -16 47 -36 56 -45 16 -15 23 -21
98 -80 24 -19 60 -50 80 -67 20 -18 39 -33 42 -33 3 0 19 -11 35 -25 16 -14
54 -45 84 -68 30 -23 57 -44 60 -47 3 -3 43 -34 90 -70 47 -35 91 -70 98 -77
7 -7 17 -13 20 -13 4 0 18 -10 32 -23 14 -12 41 -34 60 -47 19 -13 40 -28 45
-33 6 -4 93 -68 195 -142 102 -73 196 -142 210 -153 14 -10 36 -25 49 -32 14
-7 34 -21 45 -31 11 -11 23 -19 26 -19 4 0 20 -11 35 -24 15 -13 40 -30 54
-38 14 -7 28 -16 31 -19 3 -3 68 -48 145 -99 77 -51 142 -97 143 -102 2 -4 8
-8 13 -8 9 0 38 -18 280 -176 53 -34 111 -70 129 -81 46 -25 61 -35 95 -59 17
-11 37 -24 45 -27 8 -4 27 -15 42 -25 14 -9 53 -32 85 -51 32 -18 61 -39 65
-45 4 -6 8 -8 8 -4 0 4 36 -15 81 -42 44 -28 85 -50 90 -50 5 0 9 -4 9 -8 0
-4 13 -12 28 -18 33 -13 16 -21 387 200 121 72 226 132 233 134 6 2 12 8 12
13 0 5 6 9 14 9 8 0 21 6 28 13 7 7 45 32 83 56 71 43 250 156 282 179 10 6
97 64 193 127 96 64 177 120 178 125 2 6 8 10 14 10 5 0 69 42 141 92 72 51
141 100 153 108 61 42 103 73 144 105 25 19 52 38 60 42 8 4 23 15 35 24 11
10 45 36 75 58 30 22 60 44 65 48 6 5 66 51 135 103 69 51 127 97 130 100 3 4
30 25 60 47 30 22 85 64 121 94 37 30 83 68 104 84 60 47 149 119 165 133 18
15 51 43 110 90 24 21 55 47 68 59 12 13 25 23 27 23 3 0 13 8 23 17 10 10 41
38 68 62 148 130 262 239 469 446 226 226 275 277 405 424 36 40 76 86 90 101
14 15 37 43 52 62 15 19 37 45 50 59 13 14 39 45 58 69 19 24 42 51 50 60 8 9
37 45 65 81 27 35 52 66 55 69 19 18 80 100 80 108 0 6 3 12 8 14 4 2 28 32
54 68 26 36 52 70 58 77 5 7 10 16 10 21 0 5 11 22 25 38 14 16 28 37 31 47 3
9 10 17 15 17 5 0 9 4 9 10 0 9 69 123 90 147 5 7 10 15 10 18 0 3 24 47 53
98 29 50 66 119 82 152 17 33 34 63 38 66 5 3 8 8 7 10 -1 2 13 36 30 74 42
92 69 155 69 158 0 1 11 27 25 58 14 31 22 60 19 63 -4 3 -1 6 5 6 7 0 11 3
11 8 -1 4 0 10 1 15 1 4 3 10 5 15 1 4 4 14 7 22 26 69 80 249 92 305 21 97
28 129 31 152 2 16 4 28 5 28 3 0 16 85 27 185 13 114 7 600 -8 600 -3 0 -6
12 -7 28 -1 31 -7 66 -28 172 -9 41 -17 84 -19 95 -1 11 -5 27 -8 35 -3 8 -15
49 -27 90 -12 41 -29 98 -38 125 -9 28 -17 56 -18 64 -2 7 -7 18 -13 24 -6 6
-11 19 -11 29 0 10 -4 26 -9 36 -5 9 -17 35 -26 57 -32 74 -127 270 -134 275
-4 3 -15 21 -25 40 -23 46 -50 94 -56 100 -14 14 -70 102 -70 109 0 5 -4 11
-8 13 -4 2 -23 25 -42 52 -19 28 -42 57 -50 67 -8 9 -22 26 -30 37 -75 101
-314 341 -416 419 -16 12 -42 33 -59 48 -50 44 -304 210 -400 260 -49 27 -94
52 -100 56 -5 5 -17 9 -27 9 -10 0 -18 4 -18 8 0 5 -15 13 -32 19 -18 6 -73
28 -122 48 -49 21 -94 38 -100 39 -6 1 -21 7 -33 14 -12 7 -28 12 -36 12 -8 0
-27 7 -43 14 -15 8 -31 13 -36 10 -5 -3 -15 0 -23 6 -8 7 -15 10 -15 7 0 -3
-27 4 -61 14 -33 10 -65 17 -70 13 -5 -3 -9 0 -9 7 0 7 -3 10 -6 7 -3 -3 -31
0 -62 7 -159 37 -371 58 -582 58 -117 0 -306 -10 -344 -18 -12 -2 -43 -7 -71
-10 -27 -3 -81 -12 -119 -20 -38 -8 -73 -12 -77 -9 -5 3 -9 1 -9 -3 0 -5 -28
-14 -63 -20 -83 -16 -262 -74 -400 -129 -102 -41 -375 -177 -387 -193 -3 -3
-15 -12 -27 -18 -13 -7 -33 -19 -45 -25 -13 -7 -25 -15 -28 -18 -3 -3 -25 -19
-50 -35 -25 -16 -47 -32 -50 -35 -3 -3 -38 -30 -77 -59 -40 -30 -73 -59 -73
-63 0 -4 -4 -8 -10 -8 -30 0 -313 -288 -418 -427 -20 -26 -42 -54 -49 -61 -7
-7 -13 -17 -13 -22 0 -5 -6 -15 -14 -23 -8 -8 -23 -29 -34 -46 -16 -26 -22
-30 -31 -19 -6 7 -46 60 -89 118 -96 129 -120 158 -237 280 -91 96 -168 166
-275 251 -91 72 -268 198 -300 212 -8 4 -37 20 -65 37 -68 40 -275 142 -355
173 -101 40 -270 97 -270 91 0 -2 -8 0 -18 5 -11 6 -30 12 -43 15 -13 3 -42
10 -64 15 -120 28 -148 34 -172 37 -12 1 -34 5 -50 8 -32 6 -120 17 -174 21
-20 1 -40 4 -45 7 -10 6 -471 7 -477 2z m2707 -2249 c72 -2 154 -6 181 -9 28
-3 68 -8 90 -11 22 -3 65 -10 95 -17 30 -6 62 -12 70 -13 8 -1 22 -4 30 -8 8
-3 40 -11 70 -18 30 -7 70 -18 87 -26 18 -7 35 -13 38 -13 6 -1 14 -3 99 -35
38 -14 71 -23 74 -20 3 3 10 1 16 -4 13 -10 135 -40 185 -45 64 -7 119 70 127
178 1 17 3 34 3 37 1 8 120 7 122 0 6 -24 4 -1178 -2 -1186 -4 -6 -26 -9 -48
-7 l-41 4 -1 47 c0 25 -2 60 -4 76 -2 17 -5 46 -7 65 -8 71 -48 190 -94 280
-16 30 -31 57 -34 60 -3 3 -19 25 -35 50 -30 44 -167 190 -180 190 -8 0 -89
63 -93 73 -2 4 -8 7 -14 7 -5 0 -28 13 -51 28 -44 30 -171 92 -188 92 -5 0
-17 4 -27 9 -52 27 -185 63 -282 77 -62 9 -348 9 -385 0 -36 -8 -148 -59 -171
-78 -93 -72 -175 -181 -191 -253 -2 -11 -6 -31 -9 -45 -8 -38 -8 -151 0 -190
12 -55 38 -122 64 -160 31 -46 101 -109 130 -116 12 -4 22 -10 22 -15 0 -4 11
-14 25 -21 13 -7 57 -33 97 -58 70 -42 262 -141 283 -144 6 -1 19 -7 30 -12
11 -6 47 -21 80 -34 33 -13 78 -34 100 -46 22 -12 45 -23 50 -24 16 -3 86 -34
230 -100 33 -16 80 -37 105 -48 25 -11 66 -30 92 -41 26 -12 50 -21 53 -21 13
0 142 -65 203 -102 34 -21 64 -38 66 -38 13 0 178 -109 196 -130 3 -3 30 -25
60 -49 101 -81 169 -167 225 -285 36 -77 88 -216 80 -216 -3 0 0 -11 4 -24 23
-59 30 -222 17 -361 -5 -44 -9 -95 -9 -112 -1 -18 -4 -33 -7 -33 -3 0 -7 -10
-8 -22 -3 -28 -7 -49 -15 -68 -3 -8 -13 -37 -22 -65 -8 -27 -18 -57 -22 -65
-3 -8 -7 -17 -8 -20 -2 -8 -63 -121 -86 -160 -52 -86 -246 -290 -277 -290 -5
0 -21 -9 -34 -20 -33 -26 -243 -130 -262 -130 -2 0 -17 -5 -33 -11 -15 -7 -35
-13 -43 -14 -8 -1 -35 -8 -60 -15 -74 -20 -117 -28 -205 -37 -105 -10 -345 -5
-470 12 -16 2 -52 6 -80 10 -27 3 -68 11 -90 17 -51 13 -73 18 -110 24 -47 9
-297 94 -322 110 -13 8 -23 12 -23 9 0 -3 -64 28 -143 69 -125 65 -218 102
-276 110 -18 3 -91 -22 -136 -46 -70 -37 -121 -115 -128 -195 -2 -22 -7 -44
-10 -49 -3 -6 -32 -10 -64 -9 l-58 0 0 765 0 765 62 2 c58 1 63 0 62 -20 -1
-28 9 -174 14 -207 9 -57 34 -172 44 -200 4 -8 7 -21 9 -28 6 -31 70 -181 96
-225 15 -26 28 -50 28 -53 0 -8 97 -148 119 -171 12 -12 21 -24 21 -27 0 -4
150 -154 200 -199 55 -50 260 -187 285 -191 7 -1 19 -7 26 -13 17 -12 224 -94
254 -99 11 -2 40 -8 65 -14 73 -17 83 -19 130 -25 90 -13 395 -9 395 5 0 1 11
4 24 6 29 5 115 46 119 57 2 4 10 7 18 7 8 0 14 5 14 10 0 6 5 10 12 10 20 0
127 123 157 180 29 56 65 160 54 160 -3 0 -1 6 4 13 8 11 8 144 0 192 -12 67
-72 175 -135 240 -112 116 -214 177 -587 349 -44 20 -88 41 -97 46 -55 30
-293 140 -302 140 -14 0 -321 152 -324 161 -2 5 -9 9 -15 9 -13 0 -151 82
-155 92 -2 5 -9 8 -16 8 -7 0 -21 8 -32 18 -11 9 -46 35 -79 57 -59 40 -157
131 -205 191 -102 128 -178 343 -176 496 1 32 -3 58 -7 58 -5 0 -5 5 -2 11 4
5 8 27 10 47 13 136 21 200 32 242 3 14 8 34 10 45 13 68 126 315 144 315 5 0
9 5 9 11 0 19 100 140 163 199 49 46 102 88 173 138 20 14 151 84 164 87 3 1
19 7 35 14 62 24 81 31 105 35 14 3 43 10 65 15 45 12 134 24 183 25 17 0 32
4 32 9 0 4 5 5 11 1 7 -4 71 -8 143 -9z"/>
</g>
</svg>
